<?xml version="1.0" encoding="UTF-8" standalone="no"?>
<svg width="667px" height="101px" viewBox="0 0 667 101" version="1.1" xmlns="http://www.w3.org/2000/svg" xmlns:xlink="http://www.w3.org/1999/xlink" xmlns:sketch="http://www.bohemiancoding.com/sketch/ns">
    <!-- Generator: Sketch 3.3.3 (12081) - http://www.bohemiancoding.com/sketch -->
    <title>Slice 1</title>
    <desc>Created with Sketch.</desc>
    <defs>
        <path id="path-1" d="M0,0.448 L666,0.448 L666,100.94 L0,100.94 L0,0.448 L0,0.448 Z"></path>
        <path id="path-3" d="M0,0.448 L666,0.448 L666,100.94 L0,100.94 L0,0.448 L0,0.448 Z"></path>
    </defs>
    <g id="Page-1" stroke="none" stroke-width="1" fill="none" fill-rule="evenodd" sketch:type="MSPage" >
        <g id="DanskeBankLogoPaaLysBaggrundTilSkaermbrug" sketch:type="MSLayerGroup">
            <g id="Page-1">
                <g id="DanskeBankLogoPaaLysBaggrundTilSkaermbrug">
                    <g id="Group-4">
                        <g id="mask-2" fill="#FFFFFF" sketch:type="MSShapeGroup">
                            <path d="M0,0.448 L666,0.448 L666,100.94 L0,100.94 L0,0.448 L0,0.448 Z" id="path-1"></path>
                        </g>
                        <g id="Clip-2"></g>
                        <g id="Fill-1-Clipped">
                            <mask id="mask-2" sketch:name="path-1" fill="white">
                                <use xlink:href="#path-1"></use>
                            </mask>
                            <g id="path-1"></g>
                            <path d="M427.823,101 L666.407,101 L666.407,0.448 L427.823,0.448 L427.823,101 L427.823,101 Z M663.829,3.025 L663.829,98.421 L430.4,98.421 L430.4,3.025 L663.829,3.025 L663.829,3.025 Z" id="Fill-1" fill="#003366" sketch:type="MSShapeGroup" mask="url(#mask-2)"></path>
                        </g>
                        <g id="Fill-3-Clipped">
                            <mask id="mask-4" sketch:name="path-1" fill="white">
                                <use xlink:href="#path-3"></use>
                            </mask>
                            <g id="path-1"></g>
                            <path d="M0,0.448 L417.524,0.448 L417.524,100.94 L0,100.94 L0,0.448 L0,0.448 Z" id="Fill-3" fill="#003366" sketch:type="MSShapeGroup" mask="url(#mask-4)"></path>
                        </g>
                    </g>
                    <g id="Group-17" transform="translate(100.000000, 3.000000)" sketch:type="MSShapeGroup">
                        <path d="M563.829,0.025 L563.829,95.421 L330.4,95.421 L330.4,0.025 L563.829,0.025" id="Fill-5" fill="#FFFFFF"></path>
                        <path d="M44.174,54.531 C44.174,64.396 38.916,69.294 27.034,69.294 L8.308,69.294 L8.308,32.279 L26.384,32.279 C40.789,32.279 44.174,39.265 44.174,46.898 L44.174,54.531 L44.174,54.531 Z M51.878,54.243 L51.878,47.908 C51.878,27.671 35.963,26.878 25.232,26.878 L0.604,26.878 L0.604,74.767 L27.392,74.767 C48.42,74.767 51.878,63.389 51.878,54.243 L51.878,54.243 L51.878,54.243 Z" id="Fill-7" fill="#FFFFFF"></path>
                        <path d="M93.574,62.958 C93.574,65.766 93.358,68.286 90.188,69.439 C88.314,70.158 85.652,70.375 81.186,70.375 C76.721,70.375 74.057,69.942 72.473,68.934 C71.394,68.286 70.96,67.205 70.96,64.902 C70.96,62.019 71.681,60.364 73.122,59.716 C74.491,59.069 76.22,58.924 81.692,58.924 L93.574,58.924 L93.574,62.958 L93.574,62.958 Z M100.848,74.767 L100.848,55.972 C100.848,52.442 100.848,49.924 100.561,48.122 C100.2,46.248 99.55,44.953 98.039,43.801 C94.581,41.064 86.011,40.994 81.763,40.994 C78.595,40.994 69.879,41.354 66.712,44.09 C65.633,45.026 65.344,46.106 65.344,47.402 C65.344,48.266 65.488,49.418 65.56,50.932 L72.617,50.932 C72.762,50.066 72.904,47.979 73.697,47.187 C74.633,46.248 76.291,45.89 81.113,45.89 C86.66,45.89 90.55,46.106 92.132,46.968 C93.646,47.835 93.574,49.635 93.574,51.003 L93.574,54.316 L77.297,54.316 C72.904,54.316 67.863,54.388 65.054,58.204 C63.831,59.86 63.255,61.949 63.255,64.685 C63.255,72.605 68.15,75.271 80.684,75.271 C87.235,75.271 91.484,74.264 94.077,72.031 L94.726,74.767 L100.848,74.767 L100.848,74.767 Z" id="Fill-8" fill="#FFFFFF"></path>
                        <path d="M144.487,74.767 L144.487,56.476 C144.487,50.139 144.198,48.77 142.686,47.618 C141.245,46.537 138.366,45.89 133.973,45.89 C130.083,45.89 126.125,46.394 122.378,47.402 L122.378,74.767 L115.177,74.767 L115.177,41.281 L121.659,41.281 L122.16,43.657 C123.602,42.864 124.683,42.289 126.196,41.855 C128.571,41.138 131.597,40.777 135.629,40.777 C140.237,40.777 143.766,41.496 146.501,42.722 C149.166,43.872 150.608,46.034 151.184,48.554 C151.545,50.284 151.688,51.794 151.688,55.612 L151.688,74.767 L144.487,74.767" id="Fill-9" fill="#FFFFFF"></path>
                        <path d="M197.776,72.751 C194.465,74.406 189.065,75.127 182.004,75.127 C177.109,75.127 173.075,74.767 169.907,73.975 C166.522,73.184 164.866,71.6 164.649,68.719 C164.577,67.205 164.649,65.837 164.866,64.035 L171.778,64.035 C171.996,65.766 171.996,66.27 172.067,66.631 C172.354,68.213 172.212,69.079 174.083,69.655 C175.883,70.229 178.765,70.448 182.438,70.448 C187.049,70.448 190.213,69.942 192.376,69.006 C193.886,68.359 194.606,67.134 194.606,64.829 C194.606,62.165 194.031,61.084 191.295,60.652 C190.429,60.51 189.566,60.51 188.704,60.436 C188.197,60.364 186.615,60.364 184.094,60.293 C182.868,60.293 181.502,60.22 179.844,60.149 C172.714,59.789 165.082,59.502 165.082,51.074 C165.082,43.514 169.762,40.848 182.51,40.848 C185.749,40.848 189.784,41.064 192.162,41.354 C194.966,41.715 197.055,42.216 198.569,43.082 C200.224,44.017 200.8,45.53 200.8,48.195 C200.8,48.913 200.8,49.635 200.658,50.786 L193.671,50.786 L193.384,49.274 C193.023,47.474 192.881,47.114 192.303,46.681 C191.295,45.89 188.197,45.53 183.878,45.53 C179.484,45.53 177.038,45.746 175.022,46.467 C173.147,47.114 172.354,48.337 172.354,50.713 C172.354,52.371 172.933,53.596 173.722,54.099 C175.596,55.251 185.461,55.108 188.846,55.178 C192.449,55.251 194.824,55.539 196.913,56.259 C200.585,57.555 202.026,59.932 202.026,64.829 C202.026,68.79 200.73,71.239 197.776,72.751" id="Fill-10" fill="#FFFFFF"></path>
                        <path d="M242.062,74.767 L224.78,58.924 L222.187,58.924 L222.187,74.767 L214.988,74.767 L214.988,26.878 L222.187,26.878 L222.187,54.17 L224.78,54.17 L239.112,41.281 L247.536,41.281 L230.829,56.045 L251.644,74.767 L242.062,74.767" id="Fill-11" fill="#FFFFFF"></path>
                        <path d="M287.36,54.747 L264.245,54.747 C264.529,50.572 265.396,48.698 267.052,47.474 C268.708,46.248 271.805,45.673 276.342,45.673 C282.608,45.673 285.56,47.042 286.64,49.924 C287.073,51.146 287.36,52.3 287.36,54.747 L287.36,54.747 L287.36,54.747 Z M293.987,64.325 L286.858,64.325 C286.64,65.335 286.497,67.926 285.56,68.861 C284.481,69.942 282.32,70.448 276.486,70.448 C270.8,70.448 267.63,69.655 266.044,68.071 C264.821,66.845 264.101,64.325 264.101,60.364 L264.101,59.502 L294.202,59.502 C294.274,57.844 294.347,57.413 294.347,56.116 C294.347,50.572 293.554,47.474 291.179,45.098 C288.44,42.289 283.184,40.921 275.981,40.921 C266.765,40.921 261.075,43.01 258.7,47.618 C257.332,50.284 256.538,54.028 256.538,58.708 C256.538,65.982 258.482,70.589 262.731,72.895 C265.396,74.335 270.006,75.127 275.837,75.2 C280.733,75.2 284.624,74.984 288.944,73.687 C293.122,72.39 294.13,70.014 294.13,68.071 C294.13,67.565 294.13,65.91 293.987,64.325 L293.987,64.325 L293.987,64.325 Z" id="Fill-12" fill="#FFFFFF"></path>
                        <path d="M389.05,38.977 C389.05,46.034 385.09,47.474 376.88,47.474 L358.732,47.474 L358.732,32.279 L377.815,32.279 C385.09,32.279 389.05,32.926 389.05,38.977 L389.05,38.977 L389.05,38.977 Z M398.554,61.301 C398.554,55.395 395.171,51.003 387.106,49.778 L387.106,49.635 C393.368,47.979 396.755,44.738 396.755,39.625 C396.755,31.198 392.647,26.878 380.98,26.878 L351.024,26.878 L351.024,74.767 L382.208,74.767 C392.72,74.767 398.554,70.014 398.554,61.301 L398.554,61.301 L398.554,61.301 Z M390.847,61.805 C390.847,68.647 386.025,69.294 378.535,69.294 L358.732,69.294 L358.732,52.874 L379.471,52.874 C388.329,52.874 390.847,55.755 390.847,61.805 L390.847,61.805 L390.847,61.805 Z" id="Fill-13" fill="#003366"></path>
                        <path d="M437.728,62.958 C437.728,65.766 437.513,68.286 434.343,69.439 C432.472,70.158 429.81,70.375 425.341,70.375 C420.878,70.375 418.212,69.942 416.63,68.934 C415.55,68.286 415.116,67.205 415.116,64.902 C415.116,62.019 415.837,60.364 417.276,59.716 C418.646,59.069 420.372,58.924 425.847,58.924 L437.728,58.924 L437.728,62.958 L437.728,62.958 Z M445.003,74.767 L445.003,55.972 C445.003,52.442 445.003,49.924 444.714,48.122 C444.354,46.248 443.706,44.953 442.196,43.801 C438.739,41.064 430.169,40.994 425.919,40.994 C422.751,40.994 414.034,41.354 410.868,44.09 C409.788,45.026 409.501,46.106 409.501,47.402 C409.501,48.266 409.644,49.418 409.716,50.932 L416.774,50.932 C416.917,50.066 417.062,47.979 417.853,47.187 C418.788,46.248 420.446,45.89 425.27,45.89 C430.814,45.89 434.708,46.106 436.29,46.968 C437.8,47.835 437.728,49.635 437.728,51.003 L437.728,54.316 L421.454,54.316 C417.062,54.316 412.019,54.388 409.212,58.204 C407.985,59.86 407.411,61.949 407.411,64.685 C407.411,72.605 412.31,75.271 424.839,75.271 C431.392,75.271 435.644,74.264 438.233,72.031 L438.882,74.767 L445.003,74.767 L445.003,74.767 Z" id="Fill-14" fill="#003366"></path>
                        <path d="M486.845,74.767 L486.845,56.476 C486.845,50.139 486.556,48.77 485.042,47.618 C483.601,46.537 480.722,45.89 476.327,45.89 C472.44,45.89 468.481,46.394 464.733,47.402 L464.733,74.767 L457.532,74.767 L457.532,41.281 L464.013,41.281 L464.519,43.657 C465.96,42.864 467.038,42.289 468.552,41.855 C470.927,41.138 473.95,40.777 477.985,40.777 C482.593,40.777 486.122,41.496 488.86,42.722 C491.522,43.872 492.964,46.034 493.538,48.554 C493.899,50.284 494.046,51.794 494.046,55.612 L494.046,74.767 L486.845,74.767" id="Fill-15" fill="#003366"></path>
                        <path d="M533.651,74.767 L516.368,58.924 L513.774,58.924 L513.774,74.767 L506.573,74.767 L506.573,26.878 L513.774,26.878 L513.774,54.17 L516.368,54.17 L530.7,41.281 L539.124,41.281 L522.419,56.045 L543.23,74.767 L533.651,74.767" id="Fill-16" fill="#003366"></path>
                    </g>
                </g>
            </g>
        </g>
    </g>
</svg>